<mxfile host="Electron" agent="Mozilla/5.0 (Windows NT 10.0; Win64; x64) AppleWebKit/537.36 (KHTML, like Gecko) draw.io/26.0.4 Chrome/128.0.6613.186 Electron/32.2.5 Safari/537.36" version="26.0.4">
  <diagram id="C5RBs43oDa-KdzZeNtuy" name="Page-1">
    <mxGraphModel dx="875" dy="598" grid="1" gridSize="10" guides="1" tooltips="1" connect="1" arrows="1" fold="1" page="1" pageScale="1" pageWidth="827" pageHeight="1169" math="0" shadow="0">
      <root>
        <mxCell id="WIyWlLk6GJQsqaUBKTNV-0" />
        <mxCell id="WIyWlLk6GJQsqaUBKTNV-1" parent="WIyWlLk6GJQsqaUBKTNV-0" />
        <mxCell id="zI-0pLp4kAJ73hD4DYrv-44" style="edgeStyle=orthogonalEdgeStyle;rounded=0;orthogonalLoop=1;jettySize=auto;html=1;exitX=1;exitY=0.5;exitDx=0;exitDy=0;entryX=1;entryY=0.5;entryDx=0;entryDy=0;fontFamily=Courier New;fontSize=10;fontColor=default;strokeColor=#B266FF;" edge="1" parent="WIyWlLk6GJQsqaUBKTNV-1" source="zI-0pLp4kAJ73hD4DYrv-26" target="zI-0pLp4kAJ73hD4DYrv-20">
          <mxGeometry relative="1" as="geometry" />
        </mxCell>
        <mxCell id="zI-0pLp4kAJ73hD4DYrv-45" value="loop" style="edgeLabel;html=1;align=center;verticalAlign=middle;resizable=0;points=[];rounded=1;strokeColor=default;arcSize=2;fontFamily=Courier New;fontSize=10;fontColor=default;fillColor=default;" vertex="1" connectable="0" parent="zI-0pLp4kAJ73hD4DYrv-44">
          <mxGeometry x="0.4023" y="1" relative="1" as="geometry">
            <mxPoint x="-6" y="-11" as="offset" />
          </mxGeometry>
        </mxCell>
        <mxCell id="zI-0pLp4kAJ73hD4DYrv-4" style="edgeStyle=orthogonalEdgeStyle;rounded=0;orthogonalLoop=1;jettySize=auto;html=1;exitX=0.5;exitY=1;exitDx=0;exitDy=0;entryX=0.5;entryY=0;entryDx=0;entryDy=0;fontSize=10;fontFamily=Courier New;" edge="1" parent="WIyWlLk6GJQsqaUBKTNV-1" source="zI-0pLp4kAJ73hD4DYrv-1" target="zI-0pLp4kAJ73hD4DYrv-14">
          <mxGeometry relative="1" as="geometry">
            <mxPoint x="160" y="80" as="targetPoint" />
          </mxGeometry>
        </mxCell>
        <mxCell id="zI-0pLp4kAJ73hD4DYrv-1" value="get mouse pointer" style="rounded=1;whiteSpace=wrap;html=1;fontFamily=Courier New;fontSize=10;" vertex="1" parent="WIyWlLk6GJQsqaUBKTNV-1">
          <mxGeometry x="80" y="40" width="160" height="20" as="geometry" />
        </mxCell>
        <mxCell id="zI-0pLp4kAJ73hD4DYrv-8" style="edgeStyle=orthogonalEdgeStyle;rounded=0;orthogonalLoop=1;jettySize=auto;html=1;exitX=1;exitY=0.5;exitDx=0;exitDy=0;entryX=0;entryY=0.5;entryDx=0;entryDy=0;fontFamily=Courier New;" edge="1" parent="WIyWlLk6GJQsqaUBKTNV-1" source="zI-0pLp4kAJ73hD4DYrv-14" target="zI-0pLp4kAJ73hD4DYrv-6">
          <mxGeometry relative="1" as="geometry">
            <mxPoint x="200" y="120" as="sourcePoint" />
          </mxGeometry>
        </mxCell>
        <mxCell id="zI-0pLp4kAJ73hD4DYrv-9" value="yes" style="edgeLabel;html=1;align=center;verticalAlign=middle;resizable=0;points=[];fontFamily=Courier New;" vertex="1" connectable="0" parent="zI-0pLp4kAJ73hD4DYrv-8">
          <mxGeometry x="0.0086" relative="1" as="geometry">
            <mxPoint x="-1" y="-10" as="offset" />
          </mxGeometry>
        </mxCell>
        <mxCell id="zI-0pLp4kAJ73hD4DYrv-11" style="edgeStyle=orthogonalEdgeStyle;rounded=0;orthogonalLoop=1;jettySize=auto;html=1;exitX=0.5;exitY=1;exitDx=0;exitDy=0;entryX=0.5;entryY=0;entryDx=0;entryDy=0;" edge="1" parent="WIyWlLk6GJQsqaUBKTNV-1" target="zI-0pLp4kAJ73hD4DYrv-10">
          <mxGeometry relative="1" as="geometry">
            <mxPoint x="160" y="160" as="sourcePoint" />
          </mxGeometry>
        </mxCell>
        <mxCell id="zI-0pLp4kAJ73hD4DYrv-7" style="edgeStyle=orthogonalEdgeStyle;rounded=0;orthogonalLoop=1;jettySize=auto;html=1;exitX=1;exitY=0.5;exitDx=0;exitDy=0;entryX=1;entryY=0.5;entryDx=0;entryDy=0;fontFamily=Courier New;strokeColor=#B266FF;" edge="1" parent="WIyWlLk6GJQsqaUBKTNV-1" source="zI-0pLp4kAJ73hD4DYrv-6" target="zI-0pLp4kAJ73hD4DYrv-1">
          <mxGeometry relative="1" as="geometry" />
        </mxCell>
        <mxCell id="zI-0pLp4kAJ73hD4DYrv-46" value="loop" style="edgeLabel;html=1;align=center;verticalAlign=middle;resizable=0;points=[];rounded=1;strokeColor=default;arcSize=2;fontFamily=Courier New;fontSize=10;fontColor=default;fillColor=default;" vertex="1" connectable="0" parent="zI-0pLp4kAJ73hD4DYrv-7">
          <mxGeometry x="0.2979" y="-1" relative="1" as="geometry">
            <mxPoint x="11" y="-9" as="offset" />
          </mxGeometry>
        </mxCell>
        <mxCell id="zI-0pLp4kAJ73hD4DYrv-6" value="sleep for 500ms" style="rounded=1;whiteSpace=wrap;html=1;fontFamily=Courier New;fontSize=10;" vertex="1" parent="WIyWlLk6GJQsqaUBKTNV-1">
          <mxGeometry x="280" y="110" width="160" height="20" as="geometry" />
        </mxCell>
        <mxCell id="zI-0pLp4kAJ73hD4DYrv-16" style="edgeStyle=orthogonalEdgeStyle;rounded=0;orthogonalLoop=1;jettySize=auto;html=1;exitX=0.5;exitY=1;exitDx=0;exitDy=0;entryX=0.5;entryY=0;entryDx=0;entryDy=0;fontFamily=Courier New;fontSize=10;fontColor=default;" edge="1" parent="WIyWlLk6GJQsqaUBKTNV-1" source="zI-0pLp4kAJ73hD4DYrv-10" target="zI-0pLp4kAJ73hD4DYrv-15">
          <mxGeometry relative="1" as="geometry" />
        </mxCell>
        <mxCell id="zI-0pLp4kAJ73hD4DYrv-10" value="character size available?" style="rounded=1;whiteSpace=wrap;html=1;fontFamily=Courier New;fontSize=10;" vertex="1" parent="WIyWlLk6GJQsqaUBKTNV-1">
          <mxGeometry x="80" y="180" width="160" height="20" as="geometry" />
        </mxCell>
        <mxCell id="zI-0pLp4kAJ73hD4DYrv-14" value="position changed?" style="rhombus;whiteSpace=wrap;html=1;rounded=1;strokeColor=default;align=center;verticalAlign=middle;fontFamily=Courier New;fontSize=10;fontColor=default;fillColor=default;arcSize=2;" vertex="1" parent="WIyWlLk6GJQsqaUBKTNV-1">
          <mxGeometry x="120" y="80" width="80" height="80" as="geometry" />
        </mxCell>
        <mxCell id="zI-0pLp4kAJ73hD4DYrv-17" style="edgeStyle=orthogonalEdgeStyle;rounded=0;orthogonalLoop=1;jettySize=auto;html=1;exitX=1;exitY=0.5;exitDx=0;exitDy=0;fontFamily=Courier New;fontSize=10;fontColor=default;entryX=0;entryY=0.5;entryDx=0;entryDy=0;" edge="1" parent="WIyWlLk6GJQsqaUBKTNV-1" source="zI-0pLp4kAJ73hD4DYrv-15" target="zI-0pLp4kAJ73hD4DYrv-19">
          <mxGeometry relative="1" as="geometry">
            <mxPoint x="280" y="260" as="targetPoint" />
          </mxGeometry>
        </mxCell>
        <mxCell id="zI-0pLp4kAJ73hD4DYrv-18" value="no" style="edgeLabel;html=1;align=center;verticalAlign=middle;resizable=0;points=[];rounded=1;strokeColor=default;arcSize=2;fontFamily=Courier New;fontSize=10;fontColor=default;fillColor=default;" vertex="1" connectable="0" parent="zI-0pLp4kAJ73hD4DYrv-17">
          <mxGeometry x="-0.0065" y="2" relative="1" as="geometry">
            <mxPoint x="-2" y="-10" as="offset" />
          </mxGeometry>
        </mxCell>
        <mxCell id="zI-0pLp4kAJ73hD4DYrv-21" style="edgeStyle=orthogonalEdgeStyle;rounded=0;orthogonalLoop=1;jettySize=auto;html=1;exitX=0.5;exitY=1;exitDx=0;exitDy=0;fontFamily=Courier New;fontSize=10;fontColor=default;" edge="1" parent="WIyWlLk6GJQsqaUBKTNV-1" source="zI-0pLp4kAJ73hD4DYrv-15">
          <mxGeometry relative="1" as="geometry">
            <mxPoint x="160" y="320" as="targetPoint" />
          </mxGeometry>
        </mxCell>
        <mxCell id="zI-0pLp4kAJ73hD4DYrv-15" value="char h available?" style="rhombus;whiteSpace=wrap;html=1;rounded=1;strokeColor=default;align=center;verticalAlign=middle;arcSize=2;fontFamily=Courier New;fontSize=10;fontColor=default;fillColor=default;" vertex="1" parent="WIyWlLk6GJQsqaUBKTNV-1">
          <mxGeometry x="120" y="220" width="80" height="80" as="geometry" />
        </mxCell>
        <mxCell id="zI-0pLp4kAJ73hD4DYrv-35" style="edgeStyle=orthogonalEdgeStyle;rounded=0;orthogonalLoop=1;jettySize=auto;html=1;exitX=0.5;exitY=1;exitDx=0;exitDy=0;entryX=1;entryY=0.5;entryDx=0;entryDy=0;fontFamily=Courier New;fontSize=10;fontColor=default;" edge="1" parent="WIyWlLk6GJQsqaUBKTNV-1" source="zI-0pLp4kAJ73hD4DYrv-19" target="zI-0pLp4kAJ73hD4DYrv-34">
          <mxGeometry relative="1" as="geometry" />
        </mxCell>
        <mxCell id="zI-0pLp4kAJ73hD4DYrv-19" value="take standard char height" style="rounded=1;whiteSpace=wrap;html=1;fontFamily=Courier New;fontSize=10;fillColor=#dae8fc;strokeColor=#6c8ebf;" vertex="1" parent="WIyWlLk6GJQsqaUBKTNV-1">
          <mxGeometry x="280" y="250" width="160" height="20" as="geometry" />
        </mxCell>
        <mxCell id="zI-0pLp4kAJ73hD4DYrv-23" style="edgeStyle=orthogonalEdgeStyle;rounded=0;orthogonalLoop=1;jettySize=auto;html=1;exitX=0.5;exitY=1;exitDx=0;exitDy=0;entryX=0.5;entryY=0;entryDx=0;entryDy=0;fontFamily=Courier New;fontSize=10;fontColor=default;" edge="1" parent="WIyWlLk6GJQsqaUBKTNV-1" source="zI-0pLp4kAJ73hD4DYrv-20" target="zI-0pLp4kAJ73hD4DYrv-22">
          <mxGeometry relative="1" as="geometry" />
        </mxCell>
        <mxCell id="zI-0pLp4kAJ73hD4DYrv-20" value="screenshot to pix (size x)" style="rounded=1;whiteSpace=wrap;html=1;fontFamily=Courier New;fontSize=10;" vertex="1" parent="WIyWlLk6GJQsqaUBKTNV-1">
          <mxGeometry x="80" y="360" width="160" height="20" as="geometry" />
        </mxCell>
        <mxCell id="zI-0pLp4kAJ73hD4DYrv-25" style="edgeStyle=orthogonalEdgeStyle;rounded=0;orthogonalLoop=1;jettySize=auto;html=1;exitX=0.5;exitY=1;exitDx=0;exitDy=0;entryX=0.5;entryY=0;entryDx=0;entryDy=0;fontFamily=Courier New;fontSize=10;fontColor=default;" edge="1" parent="WIyWlLk6GJQsqaUBKTNV-1" source="zI-0pLp4kAJ73hD4DYrv-22" target="zI-0pLp4kAJ73hD4DYrv-24">
          <mxGeometry relative="1" as="geometry" />
        </mxCell>
        <mxCell id="zI-0pLp4kAJ73hD4DYrv-22" value="find line" style="rounded=1;whiteSpace=wrap;html=1;fontFamily=Courier New;fontSize=10;" vertex="1" parent="WIyWlLk6GJQsqaUBKTNV-1">
          <mxGeometry x="80" y="400" width="160" height="20" as="geometry" />
        </mxCell>
        <mxCell id="zI-0pLp4kAJ73hD4DYrv-27" style="edgeStyle=orthogonalEdgeStyle;rounded=0;orthogonalLoop=1;jettySize=auto;html=1;exitX=1;exitY=0.5;exitDx=0;exitDy=0;fontFamily=Courier New;fontSize=10;fontColor=default;entryX=0;entryY=0.5;entryDx=0;entryDy=0;" edge="1" parent="WIyWlLk6GJQsqaUBKTNV-1" source="zI-0pLp4kAJ73hD4DYrv-24" target="zI-0pLp4kAJ73hD4DYrv-37">
          <mxGeometry relative="1" as="geometry">
            <mxPoint x="260" y="480" as="targetPoint" />
          </mxGeometry>
        </mxCell>
        <mxCell id="zI-0pLp4kAJ73hD4DYrv-29" value="no" style="edgeLabel;html=1;align=center;verticalAlign=middle;resizable=0;points=[];rounded=1;strokeColor=default;arcSize=2;fontFamily=Courier New;fontSize=10;fontColor=default;fillColor=default;" vertex="1" connectable="0" parent="zI-0pLp4kAJ73hD4DYrv-27">
          <mxGeometry x="-0.0829" y="1" relative="1" as="geometry">
            <mxPoint x="3" y="-9" as="offset" />
          </mxGeometry>
        </mxCell>
        <mxCell id="zI-0pLp4kAJ73hD4DYrv-31" style="edgeStyle=orthogonalEdgeStyle;rounded=0;orthogonalLoop=1;jettySize=auto;html=1;exitX=0.5;exitY=1;exitDx=0;exitDy=0;entryX=0.5;entryY=0;entryDx=0;entryDy=0;fontFamily=Courier New;fontSize=10;fontColor=default;" edge="1" parent="WIyWlLk6GJQsqaUBKTNV-1" source="zI-0pLp4kAJ73hD4DYrv-24" target="zI-0pLp4kAJ73hD4DYrv-30">
          <mxGeometry relative="1" as="geometry" />
        </mxCell>
        <mxCell id="zI-0pLp4kAJ73hD4DYrv-24" value="line found?" style="rhombus;whiteSpace=wrap;html=1;rounded=1;strokeColor=default;align=center;verticalAlign=middle;arcSize=2;fontFamily=Courier New;fontSize=10;fontColor=default;fillColor=default;" vertex="1" parent="WIyWlLk6GJQsqaUBKTNV-1">
          <mxGeometry x="120" y="440" width="80" height="80" as="geometry" />
        </mxCell>
        <mxCell id="zI-0pLp4kAJ73hD4DYrv-26" value="increase (size x)" style="rounded=1;whiteSpace=wrap;html=1;fontFamily=Courier New;fontSize=10;" vertex="1" parent="WIyWlLk6GJQsqaUBKTNV-1">
          <mxGeometry x="280" y="640" width="160" height="20" as="geometry" />
        </mxCell>
        <mxCell id="zI-0pLp4kAJ73hD4DYrv-33" style="edgeStyle=orthogonalEdgeStyle;rounded=0;orthogonalLoop=1;jettySize=auto;html=1;exitX=0.5;exitY=1;exitDx=0;exitDy=0;entryX=0.5;entryY=0;entryDx=0;entryDy=0;fontFamily=Courier New;fontSize=10;fontColor=default;" edge="1" parent="WIyWlLk6GJQsqaUBKTNV-1" source="zI-0pLp4kAJ73hD4DYrv-30" target="zI-0pLp4kAJ73hD4DYrv-32">
          <mxGeometry relative="1" as="geometry" />
        </mxCell>
        <mxCell id="zI-0pLp4kAJ73hD4DYrv-30" value="update char height" style="rounded=1;whiteSpace=wrap;html=1;fontFamily=Courier New;fontSize=10;" vertex="1" parent="WIyWlLk6GJQsqaUBKTNV-1">
          <mxGeometry x="80" y="540" width="160" height="20" as="geometry" />
        </mxCell>
        <mxCell id="zI-0pLp4kAJ73hD4DYrv-48" style="edgeStyle=orthogonalEdgeStyle;rounded=0;orthogonalLoop=1;jettySize=auto;html=1;exitX=0.5;exitY=1;exitDx=0;exitDy=0;entryX=0.5;entryY=0;entryDx=0;entryDy=0;fontFamily=Courier New;fontSize=10;fontColor=default;" edge="1" parent="WIyWlLk6GJQsqaUBKTNV-1" source="zI-0pLp4kAJ73hD4DYrv-32" target="zI-0pLp4kAJ73hD4DYrv-47">
          <mxGeometry relative="1" as="geometry" />
        </mxCell>
        <mxCell id="zI-0pLp4kAJ73hD4DYrv-32" value="parse reference" style="rounded=1;whiteSpace=wrap;html=1;fontFamily=Courier New;fontSize=10;" vertex="1" parent="WIyWlLk6GJQsqaUBKTNV-1">
          <mxGeometry x="80" y="580" width="160" height="20" as="geometry" />
        </mxCell>
        <mxCell id="zI-0pLp4kAJ73hD4DYrv-36" style="edgeStyle=orthogonalEdgeStyle;rounded=0;orthogonalLoop=1;jettySize=auto;html=1;exitX=0.5;exitY=1;exitDx=0;exitDy=0;entryX=0.5;entryY=0;entryDx=0;entryDy=0;fontFamily=Courier New;fontSize=10;fontColor=default;" edge="1" parent="WIyWlLk6GJQsqaUBKTNV-1" source="zI-0pLp4kAJ73hD4DYrv-34" target="zI-0pLp4kAJ73hD4DYrv-20">
          <mxGeometry relative="1" as="geometry" />
        </mxCell>
        <mxCell id="zI-0pLp4kAJ73hD4DYrv-34" value="determine screenshot size" style="rounded=1;whiteSpace=wrap;html=1;fontFamily=Courier New;fontSize=10;" vertex="1" parent="WIyWlLk6GJQsqaUBKTNV-1">
          <mxGeometry x="80" y="320" width="160" height="20" as="geometry" />
        </mxCell>
        <mxCell id="zI-0pLp4kAJ73hD4DYrv-41" style="edgeStyle=orthogonalEdgeStyle;rounded=0;orthogonalLoop=1;jettySize=auto;html=1;exitX=0.5;exitY=1;exitDx=0;exitDy=0;fontFamily=Courier New;fontSize=10;fontColor=default;entryX=0.5;entryY=0;entryDx=0;entryDy=0;" edge="1" parent="WIyWlLk6GJQsqaUBKTNV-1" source="zI-0pLp4kAJ73hD4DYrv-37" target="zI-0pLp4kAJ73hD4DYrv-52">
          <mxGeometry relative="1" as="geometry">
            <mxPoint x="360" y="540" as="targetPoint" />
          </mxGeometry>
        </mxCell>
        <mxCell id="zI-0pLp4kAJ73hD4DYrv-43" style="edgeStyle=orthogonalEdgeStyle;rounded=0;orthogonalLoop=1;jettySize=auto;html=1;exitX=1;exitY=0.5;exitDx=0;exitDy=0;entryX=0;entryY=0.5;entryDx=0;entryDy=0;fontFamily=Courier New;fontSize=10;fontColor=default;" edge="1" parent="WIyWlLk6GJQsqaUBKTNV-1" source="zI-0pLp4kAJ73hD4DYrv-37" target="zI-0pLp4kAJ73hD4DYrv-42">
          <mxGeometry relative="1" as="geometry" />
        </mxCell>
        <mxCell id="zI-0pLp4kAJ73hD4DYrv-53" value="no" style="edgeLabel;html=1;align=center;verticalAlign=middle;resizable=0;points=[];rounded=1;strokeColor=default;arcSize=2;fontFamily=Courier New;fontSize=10;fontColor=default;fillColor=default;" vertex="1" connectable="0" parent="zI-0pLp4kAJ73hD4DYrv-43">
          <mxGeometry x="-0.1857" relative="1" as="geometry">
            <mxPoint x="7" y="-10" as="offset" />
          </mxGeometry>
        </mxCell>
        <mxCell id="zI-0pLp4kAJ73hD4DYrv-37" value="can size be increased?" style="rhombus;whiteSpace=wrap;html=1;rounded=1;strokeColor=default;align=center;verticalAlign=middle;arcSize=2;fontFamily=Courier New;fontSize=10;fontColor=default;fillColor=default;" vertex="1" parent="WIyWlLk6GJQsqaUBKTNV-1">
          <mxGeometry x="320" y="440" width="80" height="80" as="geometry" />
        </mxCell>
        <mxCell id="zI-0pLp4kAJ73hD4DYrv-42" value="breakout" style="rounded=1;whiteSpace=wrap;html=1;fontFamily=Courier New;fontSize=10;fillColor=#f8cecc;strokeColor=#b85450;" vertex="1" parent="WIyWlLk6GJQsqaUBKTNV-1">
          <mxGeometry x="480" y="470" width="160" height="20" as="geometry" />
        </mxCell>
        <mxCell id="zI-0pLp4kAJ73hD4DYrv-49" style="edgeStyle=orthogonalEdgeStyle;rounded=0;orthogonalLoop=1;jettySize=auto;html=1;exitX=1;exitY=0.5;exitDx=0;exitDy=0;entryX=0;entryY=0.5;entryDx=0;entryDy=0;fontFamily=Courier New;fontSize=10;fontColor=default;" edge="1" parent="WIyWlLk6GJQsqaUBKTNV-1" source="zI-0pLp4kAJ73hD4DYrv-47" target="zI-0pLp4kAJ73hD4DYrv-37">
          <mxGeometry relative="1" as="geometry" />
        </mxCell>
        <mxCell id="zI-0pLp4kAJ73hD4DYrv-51" style="edgeStyle=orthogonalEdgeStyle;rounded=0;orthogonalLoop=1;jettySize=auto;html=1;exitX=0.5;exitY=1;exitDx=0;exitDy=0;entryX=0.5;entryY=0;entryDx=0;entryDy=0;fontFamily=Courier New;fontSize=10;fontColor=default;" edge="1" parent="WIyWlLk6GJQsqaUBKTNV-1" source="zI-0pLp4kAJ73hD4DYrv-47" target="zI-0pLp4kAJ73hD4DYrv-50">
          <mxGeometry relative="1" as="geometry" />
        </mxCell>
        <mxCell id="zI-0pLp4kAJ73hD4DYrv-47" value="reference found?" style="rhombus;whiteSpace=wrap;html=1;rounded=1;strokeColor=default;align=center;verticalAlign=middle;arcSize=2;fontFamily=Courier New;fontSize=10;fontColor=default;fillColor=default;" vertex="1" parent="WIyWlLk6GJQsqaUBKTNV-1">
          <mxGeometry x="120" y="620" width="80" height="80" as="geometry" />
        </mxCell>
        <mxCell id="zI-0pLp4kAJ73hD4DYrv-50" value="return reference" style="rounded=1;whiteSpace=wrap;html=1;fontFamily=Courier New;fontSize=10;fillColor=#d5e8d4;strokeColor=#82b366;" vertex="1" parent="WIyWlLk6GJQsqaUBKTNV-1">
          <mxGeometry x="80" y="720" width="160" height="20" as="geometry" />
        </mxCell>
        <mxCell id="zI-0pLp4kAJ73hD4DYrv-54" style="edgeStyle=orthogonalEdgeStyle;rounded=0;orthogonalLoop=1;jettySize=auto;html=1;exitX=0.5;exitY=1;exitDx=0;exitDy=0;entryX=0.5;entryY=0;entryDx=0;entryDy=0;fontFamily=Courier New;fontSize=10;fontColor=default;" edge="1" parent="WIyWlLk6GJQsqaUBKTNV-1" source="zI-0pLp4kAJ73hD4DYrv-52" target="zI-0pLp4kAJ73hD4DYrv-26">
          <mxGeometry relative="1" as="geometry" />
        </mxCell>
        <mxCell id="zI-0pLp4kAJ73hD4DYrv-55" style="edgeStyle=orthogonalEdgeStyle;rounded=0;orthogonalLoop=1;jettySize=auto;html=1;exitX=1;exitY=0.5;exitDx=0;exitDy=0;entryX=0;entryY=0.5;entryDx=0;entryDy=0;fontFamily=Courier New;fontSize=10;fontColor=default;" edge="1" parent="WIyWlLk6GJQsqaUBKTNV-1" source="zI-0pLp4kAJ73hD4DYrv-52" target="zI-0pLp4kAJ73hD4DYrv-42">
          <mxGeometry relative="1" as="geometry" />
        </mxCell>
        <mxCell id="zI-0pLp4kAJ73hD4DYrv-52" value="cursor in area?" style="rhombus;whiteSpace=wrap;html=1;rounded=1;strokeColor=default;align=center;verticalAlign=middle;arcSize=2;fontFamily=Courier New;fontSize=10;fontColor=default;fillColor=default;" vertex="1" parent="WIyWlLk6GJQsqaUBKTNV-1">
          <mxGeometry x="320" y="540" width="80" height="80" as="geometry" />
        </mxCell>
      </root>
    </mxGraphModel>
  </diagram>
</mxfile>
